<svg height='100px' width='100px'  fill="#000000" xmlns:dc="http://purl.org/dc/elements/1.1/" xmlns:cc="http://creativecommons.org/ns#" xmlns:rdf="http://www.w3.org/1999/02/22-rdf-syntax-ns#" xmlns:svg="http://www.w3.org/2000/svg" xmlns="http://www.w3.org/2000/svg" xmlns:sodipodi="http://sodipodi.sourceforge.net/DTD/sodipodi-0.dtd" xmlns:inkscape="http://www.inkscape.org/namespaces/inkscape" version="1.1" x="0px" y="0px" viewBox="0 0 100 100"><g transform="translate(0,-952.36218)"><path style="font-size:medium;font-style:normal;font-variant:normal;font-weight:normal;font-stretch:normal;text-indent:0;text-align:start;text-decoration:none;line-height:normal;letter-spacing:normal;word-spacing:normal;text-transform:none;direction:ltr;block-progression:tb;writing-mode:lr-tb;text-anchor:start;baseline-shift:baseline;opacity:1;color:#000000;fill:#000000;fill-opacity:1;stroke:none;stroke-width:4.00000047999999970;marker:none;visibility:visible;display:inline;overflow:visible;enable-background:accumulate;font-family:Sans;-inkscape-font-specification:Sans" d="M 77.71875 5.96875 A 2.0002002 2.0002002 0 0 0 76.0625 8.4375 L 79.09375 21.75 C 71.544348 14.484516 61.30099 10 50 10 C 26.82773 10 8 28.82772 8 52 C 8 75.1723 26.82773 94 50 94 C 73.17227 94 92 75.1723 92 52 C 92.01495 50.9434 91.056736 49.96875 90 49.96875 C 88.943264 49.96875 87.985049 50.9434 88 52 C 88 73.0105 71.01051 90 50 90 C 28.98949 90 12 73.0105 12 52 C 12 30.98948 28.98949 14 50 14 C 62.021624 14 72.692681 19.555062 79.65625 28.25 L 58.84375 30 A 2.0002002 2.0002002 0 1 0 59.15625 33.96875 L 83.15625 31.96875 A 2.0002002 2.0002002 0 0 0 84.9375 29.53125 L 79.9375 7.53125 A 2.0002002 2.0002002 0 0 0 77.71875 5.96875 z " transform="translate(0,952.36218)"></path></g></svg>